<svg width="59" height="71" viewBox="0 0 59 71" fill="none" xmlns="http://www.w3.org/2000/svg">
<path d="M0.110792 40.0036C0.110792 38.462 0.0184654 36.9128 0.135413 35.3824C0.267748 33.6247 1.10792 32.273 2.3051 31.2787C2.4563 31.1705 2.57977 31.0136 2.6618 30.8256C2.74383 30.6377 2.78122 30.4258 2.76981 30.2137C2.74951 26.0551 3.32963 21.9241 4.48401 18.007C6.82296 10.3248 11.227 5.14127 17.5421 2.31489C20.0067 1.2463 22.5734 0.560598 25.1806 0.274245C28.1819 -0.103467 31.208 -0.0909833 34.2071 0.311483C38.9804 0.963151 43.4706 2.6128 47.3699 6.16904C51.2692 9.72528 53.7681 14.5439 55.0884 20.2376C55.8267 23.4219 56.2035 26.7129 56.2086 30.0201C56.192 30.2886 56.2373 30.5575 56.3395 30.7968C56.4416 31.0361 56.5966 31.2365 56.7872 31.3755C57.4723 31.9354 58.0319 32.6921 58.416 33.5779C58.8 34.4636 58.9964 35.4509 58.9877 36.4511C59.0123 38.8492 58.9877 41.2436 58.9877 43.6418C58.9536 45.2191 58.4311 46.7234 57.5236 47.8565C56.6162 48.9897 55.3901 49.669 54.0882 49.76C52.8849 49.8047 51.6815 49.7972 50.4782 49.76C50.3268 49.731 50.1719 49.7715 50.0438 49.8734C49.9158 49.9753 49.8237 50.1314 49.7858 50.3111C48.636 54.0471 46.9143 57.4872 44.7109 60.4511C41.6702 64.5473 38.0664 67.6418 33.6809 69.2877C29.9878 70.6692 26.424 70.1293 22.9648 68.2376C17.7976 65.4112 13.8767 60.9091 11.0485 55.0031C10.3778 53.4952 9.77175 51.9466 9.23269 50.3633C9.19279 50.1752 9.09775 50.011 8.96526 49.9014C8.83278 49.7918 8.67188 49.7442 8.51254 49.7674C7.30922 49.801 6.10589 49.7935 4.90256 49.7674C2.34818 49.693 0.0400083 46.8554 0 43.7684C0 42.5135 0 41.2585 0 40.0036H0.110792ZM21.346 20.4461L21.2044 20.4797C21.1767 20.744 21.1336 21.0047 21.1244 21.2691C21.0504 23.7731 20.4827 26.2193 19.4687 28.4039C17.6837 32.2506 15.1324 34.8945 11.467 35.7957C11.3788 35.8409 11.3011 35.9119 11.241 36.0022C11.1808 36.0925 11.1401 36.1994 11.1223 36.3133C11.03 39.4264 11.1039 42.5284 11.7686 45.5633C12.021 46.7214 12.1718 47.9353 13.0273 48.7508C13.5351 49.2349 14.006 49.7823 14.5415 50.2143C17.4344 52.5417 20.712 53.2641 24.0973 53.5099C24.1747 53.4988 24.2494 53.469 24.3171 53.4223C24.3848 53.3756 24.444 53.313 24.4913 53.238C26.2978 50.5681 30.3109 50.2367 32.6314 52.3481C34.5395 54.0834 34.478 56.7906 32.5237 58.4439C31.2728 59.4737 29.7513 59.9074 28.252 59.6616C26.6886 59.4605 25.276 58.8051 24.3282 57.1406C24.2226 56.9967 24.0768 56.9052 23.9188 56.8837C23.5003 56.8129 23.0756 56.7831 22.6509 56.7422C20.2032 56.5266 17.8005 55.8337 15.5355 54.6903C15.4348 54.646 15.3321 54.6087 15.2278 54.5786C15.227 54.639 15.2332 54.6991 15.2463 54.7574C15.2836 54.8347 15.3247 54.9093 15.3694 54.9808C17.6182 58.8371 20.6479 61.9298 24.1681 63.9626C26.8948 65.5266 29.7077 66.1969 32.6807 64.9643C38.0972 62.73 42.0888 58.4104 44.9324 52.4896C47.3945 47.3842 48.127 41.8059 47.8623 35.9782C47.7607 33.7104 47.6961 33.5949 46.0434 32.3959C42.9413 30.1616 39.5036 29.2343 35.9059 28.672C36.6583 29.7588 37.2083 31.0288 37.5186 32.3959C36.9699 31.9911 36.3992 31.6315 35.8105 31.3197C33.964 30.5191 32.1175 29.8078 30.2709 29.0221C27.3257 27.7597 24.7559 25.8196 22.7986 22.8182C22.3031 22.0623 21.8261 21.2468 21.3368 20.4499L21.346 20.4461ZM53.0664 30.1616C53.0846 29.7758 53.0846 29.3892 53.0664 29.0035C52.8664 27.0559 52.7587 25.086 52.4263 23.1683C51.0199 14.8232 47.1544 8.92466 40.47 5.91955C37.574 4.61621 34.5611 4.05764 31.4866 3.89007C27.1472 3.62568 22.8848 4.05019 18.7731 5.80783C13.9906 7.84476 10.3899 11.5164 8.20171 17.1282C6.8722 20.5206 6.24746 24.1178 6.00741 27.8342C5.95817 28.6013 5.93047 29.3684 5.89046 30.169C6.46904 30.169 6.95222 30.1355 7.42924 30.169C7.83856 30.2063 7.95243 30.0163 8.01398 29.5434C8.44297 26.0385 9.34326 22.6421 10.6792 19.4891C12.9904 14.1492 16.4773 10.4477 21.2075 8.56345C25.8731 6.73879 30.6341 6.61218 35.4166 7.81869C41.107 9.24864 45.4095 13.006 48.1977 19.2136C49.5994 22.456 50.5488 25.9563 51.0076 29.5732C51.0383 29.7892 51.2353 30.1169 51.3769 30.1318C51.9216 30.1876 52.4786 30.1616 53.0664 30.1616Z" fill="black"/>
<path d="M37.1522 42.2304C36.5497 42.229 35.9611 42.0111 35.461 41.6046C34.9609 41.198 34.5718 40.621 34.3429 39.9466C34.114 39.2722 34.0557 38.5308 34.1754 37.8163C34.295 37.1018 34.5872 36.4463 35.015 35.9329C35.4427 35.4195 35.9868 35.0712 36.5783 34.9323C37.1697 34.7933 37.782 34.8699 38.3374 35.1523C38.8929 35.4347 39.3666 35.9102 39.6986 36.5186C40.0305 37.127 40.2058 37.8409 40.2021 38.5699C40.1809 39.5378 39.852 40.4584 39.2839 41.1403C38.7158 41.8221 37.9523 42.2126 37.1522 42.2304Z" fill="black"/>
<path d="M21.8506 42.2304C21.2481 42.2319 20.6588 42.017 20.1573 41.6129C19.6559 41.2088 19.2648 40.6337 19.0336 39.9604C18.8025 39.2871 18.7417 38.546 18.859 37.8309C18.9762 37.1158 19.2662 36.4589 19.6923 35.9434C20.1183 35.4279 20.6612 35.077 21.2522 34.9352C21.8432 34.7933 22.4557 34.8668 23.0121 35.1465C23.5685 35.4262 24.0438 35.8994 24.3778 36.5062C24.7118 37.1129 24.8894 37.826 24.8882 38.555C24.8702 39.523 24.5444 40.4452 23.9786 41.1298C23.4128 41.8144 22.6506 42.2086 21.8506 42.2304Z" fill="black"/>
</svg>
